<mxfile host="app.diagrams.net" modified="2020-09-29T13:34:28.215Z" agent="5.0 (Windows NT 10.0; Win64; x64) AppleWebKit/537.36 (KHTML, like Gecko) Chrome/85.0.4183.121 Safari/537.36" etag="4fomafgaSp8OraZAOZAw" version="13.7.6" type="github">
  <diagram id="kgpKYQtTHZ0yAKxKKP6v" name="Page-1">
    <mxGraphModel dx="1185" dy="635" grid="1" gridSize="10" guides="1" tooltips="1" connect="1" arrows="1" fold="1" page="1" pageScale="1" pageWidth="850" pageHeight="1100" math="0" shadow="0">
      <root>
        <mxCell id="0" />
        <mxCell id="1" parent="0" />
        <mxCell id="3nuBFxr9cyL0pnOWT2aG-1" value="main" style="shape=umlLifeline;perimeter=lifelinePerimeter;container=1;collapsible=0;recursiveResize=0;rounded=0;shadow=0;strokeWidth=1;" parent="1" vertex="1">
          <mxGeometry x="120" y="80" width="150" height="810" as="geometry" />
        </mxCell>
        <mxCell id="3nuBFxr9cyL0pnOWT2aG-2" value="" style="points=[];perimeter=orthogonalPerimeter;rounded=0;shadow=0;strokeWidth=1;" parent="3nuBFxr9cyL0pnOWT2aG-1" vertex="1">
          <mxGeometry x="70" y="65" width="10" height="745" as="geometry" />
        </mxCell>
        <mxCell id="3nuBFxr9cyL0pnOWT2aG-5" value="Board" style="shape=umlLifeline;perimeter=lifelinePerimeter;container=1;collapsible=0;recursiveResize=0;rounded=0;shadow=0;strokeWidth=1;" parent="1" vertex="1">
          <mxGeometry x="520" y="190" width="100" height="440" as="geometry" />
        </mxCell>
        <mxCell id="1Ccac8pOq4TxOKXkScjV-6" value="" style="html=1;points=[];perimeter=orthogonalPerimeter;" vertex="1" parent="3nuBFxr9cyL0pnOWT2aG-5">
          <mxGeometry x="45" y="80" width="10" height="30" as="geometry" />
        </mxCell>
        <mxCell id="1Ccac8pOq4TxOKXkScjV-42" value="" style="html=1;points=[];perimeter=orthogonalPerimeter;" vertex="1" parent="3nuBFxr9cyL0pnOWT2aG-5">
          <mxGeometry x="43.75" y="370" width="12.5" height="20" as="geometry" />
        </mxCell>
        <mxCell id="1Ccac8pOq4TxOKXkScjV-55" value="" style="html=1;points=[];perimeter=orthogonalPerimeter;" vertex="1" parent="3nuBFxr9cyL0pnOWT2aG-5">
          <mxGeometry x="46.25" y="290" width="10" height="20" as="geometry" />
        </mxCell>
        <mxCell id="1Ccac8pOq4TxOKXkScjV-3" value="" style="edgeStyle=orthogonalEdgeStyle;rounded=0;orthogonalLoop=1;jettySize=auto;html=1;" edge="1" parent="1" source="3nuBFxr9cyL0pnOWT2aG-2">
          <mxGeometry relative="1" as="geometry">
            <mxPoint x="520" y="200" as="targetPoint" />
            <Array as="points">
              <mxPoint x="510" y="200" />
              <mxPoint x="510" y="200" />
            </Array>
          </mxGeometry>
        </mxCell>
        <mxCell id="1Ccac8pOq4TxOKXkScjV-4" value="create" style="text;html=1;strokeColor=none;fillColor=none;align=center;verticalAlign=middle;whiteSpace=wrap;rounded=0;" vertex="1" parent="1">
          <mxGeometry x="210" y="180" width="40" height="20" as="geometry" />
        </mxCell>
        <mxCell id="1Ccac8pOq4TxOKXkScjV-8" value="create" style="html=1;verticalAlign=bottom;endArrow=block;entryX=0;entryY=0.5;entryDx=0;entryDy=0;" edge="1" parent="1" source="3nuBFxr9cyL0pnOWT2aG-2">
          <mxGeometry y="10" width="80" relative="1" as="geometry">
            <mxPoint x="180" y="255" as="sourcePoint" />
            <mxPoint x="340" y="255" as="targetPoint" />
            <Array as="points">
              <mxPoint x="210" y="254.66" />
            </Array>
            <mxPoint as="offset" />
          </mxGeometry>
        </mxCell>
        <mxCell id="1Ccac8pOq4TxOKXkScjV-9" value="Robot i" style="shape=umlLifeline;perimeter=lifelinePerimeter;container=1;collapsible=0;recursiveResize=0;rounded=0;shadow=0;strokeWidth=1;" vertex="1" parent="1">
          <mxGeometry x="340" y="240" width="100" height="670" as="geometry" />
        </mxCell>
        <mxCell id="1Ccac8pOq4TxOKXkScjV-10" value="" style="html=1;points=[];perimeter=orthogonalPerimeter;" vertex="1" parent="1Ccac8pOq4TxOKXkScjV-9">
          <mxGeometry x="45" y="60" width="10" height="300" as="geometry" />
        </mxCell>
        <mxCell id="1Ccac8pOq4TxOKXkScjV-29" value="dispatch" style="html=1;verticalAlign=bottom;endArrow=block;entryX=1.11;entryY=0.163;entryDx=0;entryDy=0;entryPerimeter=0;" edge="1" parent="1Ccac8pOq4TxOKXkScjV-9" target="1Ccac8pOq4TxOKXkScjV-31">
          <mxGeometry x="0.622" y="626" width="80" relative="1" as="geometry">
            <mxPoint x="60" y="220" as="sourcePoint" />
            <mxPoint x="66.58999999999992" y="258.84000000000015" as="targetPoint" />
            <Array as="points">
              <mxPoint x="80" y="220" />
              <mxPoint x="80" y="226" />
              <mxPoint x="80" y="237" />
            </Array>
            <mxPoint x="624" y="-364" as="offset" />
          </mxGeometry>
        </mxCell>
        <mxCell id="1Ccac8pOq4TxOKXkScjV-11" value="move(n)" style="html=1;verticalAlign=bottom;endArrow=block;" edge="1" parent="1">
          <mxGeometry width="80" relative="1" as="geometry">
            <mxPoint x="200" y="320" as="sourcePoint" />
            <mxPoint x="380" y="320" as="targetPoint" />
          </mxGeometry>
        </mxCell>
        <mxCell id="1Ccac8pOq4TxOKXkScjV-12" value="Pos i" style="shape=umlLifeline;perimeter=lifelinePerimeter;container=1;collapsible=0;recursiveResize=0;rounded=0;shadow=0;strokeWidth=1;" vertex="1" parent="1">
          <mxGeometry x="640" y="240" width="100" height="420" as="geometry" />
        </mxCell>
        <mxCell id="1Ccac8pOq4TxOKXkScjV-13" value="" style="html=1;points=[];perimeter=orthogonalPerimeter;" vertex="1" parent="1Ccac8pOq4TxOKXkScjV-12">
          <mxGeometry x="45" y="80" width="10" height="10" as="geometry" />
        </mxCell>
        <mxCell id="1Ccac8pOq4TxOKXkScjV-16" value="" style="html=1;points=[];perimeter=orthogonalPerimeter;" vertex="1" parent="1Ccac8pOq4TxOKXkScjV-12">
          <mxGeometry x="45" y="110" width="10" height="10" as="geometry" />
        </mxCell>
        <mxCell id="1Ccac8pOq4TxOKXkScjV-46" value="" style="html=1;points=[];perimeter=orthogonalPerimeter;" vertex="1" parent="1Ccac8pOq4TxOKXkScjV-12">
          <mxGeometry x="45" y="330" width="10" height="10" as="geometry" />
        </mxCell>
        <mxCell id="1Ccac8pOq4TxOKXkScjV-14" value="create" style="html=1;verticalAlign=bottom;endArrow=block;entryX=-0.003;entryY=0.049;entryDx=0;entryDy=0;entryPerimeter=0;" edge="1" parent="1" target="1Ccac8pOq4TxOKXkScjV-12">
          <mxGeometry width="80" relative="1" as="geometry">
            <mxPoint x="441" y="252" as="sourcePoint" />
            <mxPoint x="640" y="250" as="targetPoint" />
          </mxGeometry>
        </mxCell>
        <mxCell id="1Ccac8pOq4TxOKXkScjV-15" value="addRobot" style="html=1;verticalAlign=bottom;endArrow=block;" edge="1" parent="1">
          <mxGeometry width="80" relative="1" as="geometry">
            <mxPoint x="440" y="280" as="sourcePoint" />
            <mxPoint x="570" y="280" as="targetPoint" />
          </mxGeometry>
        </mxCell>
        <mxCell id="1Ccac8pOq4TxOKXkScjV-17" value="getx" style="html=1;verticalAlign=bottom;endArrow=block;" edge="1" parent="1" target="1Ccac8pOq4TxOKXkScjV-12">
          <mxGeometry width="80" relative="1" as="geometry">
            <mxPoint x="390" y="320" as="sourcePoint" />
            <mxPoint x="470" y="320" as="targetPoint" />
          </mxGeometry>
        </mxCell>
        <mxCell id="1Ccac8pOq4TxOKXkScjV-19" value="return x" style="html=1;verticalAlign=bottom;endArrow=open;dashed=1;endSize=8;" edge="1" parent="1" target="1Ccac8pOq4TxOKXkScjV-9">
          <mxGeometry x="0.1857" y="10" relative="1" as="geometry">
            <mxPoint x="685" y="330" as="sourcePoint" />
            <mxPoint x="605" y="330" as="targetPoint" />
            <mxPoint as="offset" />
          </mxGeometry>
        </mxCell>
        <mxCell id="1Ccac8pOq4TxOKXkScjV-20" value="gety" style="html=1;verticalAlign=bottom;endArrow=block;" edge="1" parent="1" source="1Ccac8pOq4TxOKXkScjV-10">
          <mxGeometry x="0.0153" width="80" relative="1" as="geometry">
            <mxPoint x="400" y="350" as="sourcePoint" />
            <mxPoint x="685" y="350" as="targetPoint" />
            <mxPoint as="offset" />
          </mxGeometry>
        </mxCell>
        <mxCell id="1Ccac8pOq4TxOKXkScjV-21" value="return y" style="html=1;verticalAlign=bottom;endArrow=open;dashed=1;endSize=8;" edge="1" parent="1" target="1Ccac8pOq4TxOKXkScjV-10">
          <mxGeometry x="0.1857" y="10" relative="1" as="geometry">
            <mxPoint x="695" y="359.66000000000014" as="sourcePoint" />
            <mxPoint x="399.8103448275863" y="359.66000000000014" as="targetPoint" />
            <mxPoint as="offset" />
          </mxGeometry>
        </mxCell>
        <mxCell id="1Ccac8pOq4TxOKXkScjV-26" value="[escpae board]" style="text;html=1;strokeColor=none;fillColor=none;align=center;verticalAlign=middle;whiteSpace=wrap;rounded=0;" vertex="1" parent="1">
          <mxGeometry x="340" y="420" width="210" height="20" as="geometry" />
        </mxCell>
        <mxCell id="1Ccac8pOq4TxOKXkScjV-27" value="error massage, return 0" style="html=1;verticalAlign=bottom;endArrow=open;dashed=1;endSize=8;" edge="1" parent="1" target="3nuBFxr9cyL0pnOWT2aG-2">
          <mxGeometry x="0.1579" y="20" relative="1" as="geometry">
            <mxPoint x="390" y="430" as="sourcePoint" />
            <mxPoint x="210" y="430" as="targetPoint" />
            <mxPoint as="offset" />
          </mxGeometry>
        </mxCell>
        <mxCell id="1Ccac8pOq4TxOKXkScjV-31" value="" style="html=1;points=[];perimeter=orthogonalPerimeter;" vertex="1" parent="1">
          <mxGeometry x="390" y="470" width="10" height="40" as="geometry" />
        </mxCell>
        <mxCell id="1Ccac8pOq4TxOKXkScjV-33" value="checkOtherRobot" style="text;html=1;strokeColor=none;fillColor=none;align=center;verticalAlign=middle;whiteSpace=wrap;rounded=0;" vertex="1" parent="1">
          <mxGeometry x="450" y="450" width="40" height="20" as="geometry" />
        </mxCell>
        <mxCell id="1Ccac8pOq4TxOKXkScjV-34" value="error message, return 0" style="html=1;verticalAlign=bottom;endArrow=open;dashed=1;endSize=8;" edge="1" parent="1" target="3nuBFxr9cyL0pnOWT2aG-1">
          <mxGeometry relative="1" as="geometry">
            <mxPoint x="395" y="520" as="sourcePoint" />
            <mxPoint x="201.3800000000001" y="514.2549999999999" as="targetPoint" />
            <Array as="points">
              <mxPoint x="395" y="520" />
            </Array>
          </mxGeometry>
        </mxCell>
        <mxCell id="1Ccac8pOq4TxOKXkScjV-36" value="" style="html=1;points=[];perimeter=orthogonalPerimeter;" vertex="1" parent="1">
          <mxGeometry x="390" y="550" width="10" height="30" as="geometry" />
        </mxCell>
        <mxCell id="1Ccac8pOq4TxOKXkScjV-40" value="setPos" style="html=1;verticalAlign=bottom;endArrow=block;entryX=0.969;entryY=0.11;entryDx=0;entryDy=0;entryPerimeter=0;" edge="1" parent="1" target="1Ccac8pOq4TxOKXkScjV-36">
          <mxGeometry x="0.4737" y="-30" width="80" relative="1" as="geometry">
            <mxPoint x="400" y="540" as="sourcePoint" />
            <mxPoint x="480" y="540" as="targetPoint" />
            <Array as="points">
              <mxPoint x="420" y="540" />
              <mxPoint x="420" y="550" />
            </Array>
            <mxPoint x="30" y="27" as="offset" />
          </mxGeometry>
        </mxCell>
        <mxCell id="1Ccac8pOq4TxOKXkScjV-41" value="setRobot" style="html=1;verticalAlign=bottom;endArrow=block;" edge="1" parent="1" target="1Ccac8pOq4TxOKXkScjV-42">
          <mxGeometry width="80" relative="1" as="geometry">
            <mxPoint x="400" y="560" as="sourcePoint" />
            <mxPoint x="480" y="560" as="targetPoint" />
          </mxGeometry>
        </mxCell>
        <mxCell id="1Ccac8pOq4TxOKXkScjV-47" value="setPos" style="html=1;verticalAlign=bottom;endArrow=block;entryX=0;entryY=0;" edge="1" target="1Ccac8pOq4TxOKXkScjV-46" parent="1" source="1Ccac8pOq4TxOKXkScjV-36">
          <mxGeometry x="0.614" y="10" relative="1" as="geometry">
            <mxPoint x="615" y="570" as="sourcePoint" />
            <mxPoint as="offset" />
          </mxGeometry>
        </mxCell>
        <mxCell id="1Ccac8pOq4TxOKXkScjV-49" value="return 1" style="html=1;verticalAlign=bottom;endArrow=open;dashed=1;endSize=8;" edge="1" parent="1" target="3nuBFxr9cyL0pnOWT2aG-1">
          <mxGeometry relative="1" as="geometry">
            <mxPoint x="380" y="590" as="sourcePoint" />
            <mxPoint x="300" y="590" as="targetPoint" />
          </mxGeometry>
        </mxCell>
        <mxCell id="1Ccac8pOq4TxOKXkScjV-54" value="getid" style="html=1;verticalAlign=bottom;endArrow=block;" edge="1" parent="1" target="1Ccac8pOq4TxOKXkScjV-55">
          <mxGeometry width="80" relative="1" as="geometry">
            <mxPoint x="400" y="484.76" as="sourcePoint" />
            <mxPoint x="560" y="485" as="targetPoint" />
          </mxGeometry>
        </mxCell>
        <mxCell id="1Ccac8pOq4TxOKXkScjV-56" value="return id(at position)" style="html=1;verticalAlign=bottom;endArrow=open;dashed=1;endSize=8;entryX=1.205;entryY=0.699;entryDx=0;entryDy=0;entryPerimeter=0;" edge="1" parent="1">
          <mxGeometry x="-0.4076" y="21" relative="1" as="geometry">
            <mxPoint x="570" y="500" as="sourcePoint" />
            <mxPoint x="402.04999999999995" y="497.96000000000004" as="targetPoint" />
            <mxPoint as="offset" />
          </mxGeometry>
        </mxCell>
        <mxCell id="1Ccac8pOq4TxOKXkScjV-57" value="[id &amp;gt; 0]" style="text;html=1;strokeColor=none;fillColor=none;align=center;verticalAlign=middle;whiteSpace=wrap;rounded=0;" vertex="1" parent="1">
          <mxGeometry x="405" y="510" width="40" height="20" as="geometry" />
        </mxCell>
        <mxCell id="1Ccac8pOq4TxOKXkScjV-59" value="loop" style="shape=umlFrame;whiteSpace=wrap;html=1;width=40;height=15;" vertex="1" parent="1">
          <mxGeometry x="310" y="385" width="300" height="145" as="geometry" />
        </mxCell>
        <mxCell id="1Ccac8pOq4TxOKXkScjV-60" value="[n times]" style="text;html=1;strokeColor=none;fillColor=none;align=center;verticalAlign=middle;whiteSpace=wrap;rounded=0;" vertex="1" parent="1">
          <mxGeometry x="350" y="390" width="50" height="20" as="geometry" />
        </mxCell>
        <mxCell id="1Ccac8pOq4TxOKXkScjV-61" value="alt" style="shape=umlFrame;whiteSpace=wrap;html=1;width=30;height=15;" vertex="1" parent="1">
          <mxGeometry x="340" y="410" width="210" height="120" as="geometry" />
        </mxCell>
        <mxCell id="1Ccac8pOq4TxOKXkScjV-62" value="alt" style="shape=umlFrame;whiteSpace=wrap;html=1;width=25;height=15;" vertex="1" parent="1">
          <mxGeometry x="363" y="510" width="97" height="20" as="geometry" />
        </mxCell>
      </root>
    </mxGraphModel>
  </diagram>
</mxfile>
